<?xml version="1.0" encoding="utf-8"?>
<!-- Generator: Adobe Illustrator 16.0.0, SVG Export Plug-In . SVG Version: 6.00 Build 0)  -->
<!DOCTYPE svg PUBLIC "-//W3C//DTD SVG 1.1//EN" "http://www.w3.org/Graphics/SVG/1.1/DTD/svg11.dtd">
<svg version="1.1" id="Camada_1" xmlns="http://www.w3.org/2000/svg" xmlns:xlink="http://www.w3.org/1999/xlink" x="0px" y="0px"
	 width="80px" height="16px" viewBox="0 0 80 16" enable-background="new 0 0 80 16" xml:space="preserve">
<g transform="translate(16, 0)">
	<path fill="#FFFFFF" d="M15,1H1C0.4,1,0,1.4,0,2v12c0,0.6,0.4,1,1,1h14c0.6,0,1-0.4,1-1V2C16,1.4,15.6,1,15,1z M14,13H2V6.7
		l5.5,3.1C7.7,10,7.8,10,8,10s0.3,0,0.5-0.1L14,6.7V13z M14,4.4L8,7.8L2,4.4V3h12V4.4z"/>
</g>
<g transform="translate(32, 0)">
	<path fill="#FFFFFF" d="M3,16h10c0.6,0,1-0.4,1-1V7.5l0.3,0.3C14.5,7.9,14.8,8,15,8c0.3,0,0.6-0.1,0.8-0.3c0.4-0.4,0.3-1-0.1-1.4
		l-7-6C8.3,0,7.8,0,7.4,0.3L4,3.1V2c0-0.6-0.4-1-1-1S2,1.4,2,2v2.8L0.3,6.2c-0.4,0.4-0.5,1-0.1,1.4c0.4,0.4,1,0.5,1.4,0.1L2,7.5V15
		C2,15.6,2.4,16,3,16z M4,5.7l4-3.4l4,3.5c0,0.1,0,0.1,0,0.2v8h-2v-3c0-0.6-0.4-1-1-1H7c-0.6,0-1,0.4-1,1v3H4V5.7z"/>
	<rect x="6" y="6" fill="#FFFFFF" width="4" height="2"/>
</g>
<path fill="#FFFFFF" d="M62.108,2.785h-12.64c-0.7,0-1.267,0.566-1.267,1.264v9.271c0,0.699,0.566,1.266,1.267,1.266h12.64
	c0.702,0,1.267-0.566,1.267-1.266V4.049C63.375,3.351,62.811,2.785,62.108,2.785L62.108,2.785z M49.627,4.049H61.95
	c0.088,0,0.158,0.071,0.158,0.159v1.106h-12.64V4.208C49.469,4.121,49.541,4.049,49.627,4.049z M61.95,13.32H49.627
	c-0.086,0-0.158-0.068-0.158-0.156V8.686h12.64v4.479C62.108,13.252,62.038,13.32,61.95,13.32z M53.26,10.688v1.053
	c0,0.174-0.142,0.316-0.315,0.316h-1.896c-0.175,0-0.317-0.143-0.317-0.316v-1.053c0-0.176,0.143-0.316,0.317-0.316h1.896
	C53.118,10.371,53.26,10.512,53.26,10.688z M58.317,10.688v1.053c0,0.174-0.142,0.316-0.315,0.316h-3.583
	c-0.174,0-0.315-0.143-0.315-0.316v-1.053c0-0.176,0.142-0.316,0.315-0.316h3.583C58.176,10.371,58.317,10.512,58.317,10.688z"/>
<path fill="#FFFFFF" d="M63.598,14.837V2.535h0.576v12.302H63.598z M64.458,14.828V2.535h0.293v12.293H64.458z M65.327,14.828V2.535
	h0.284v12.293H65.327z M66.765,14.828V2.535h0.284v12.293H66.765z M67.918,14.828V2.535h0.568v12.293H67.918z M69.354,14.828V2.535
	h0.285v12.293H69.354z M69.932,14.828V2.535h0.284v12.293H69.932z M70.509,14.828V2.535h0.284v12.293H70.509z M71.652,14.828V2.535
	h0.577v12.293H71.652z M73.09,14.828V2.535h0.576v12.293H73.09z M74.243,14.828V2.535h0.576v12.293H74.243z M75.396,14.828V2.535
	h0.577v12.293H75.396z M76.257,14.828V2.535h0.576v12.293H76.257z M77.704,14.828V2.535h0.86v12.293H77.704z M78.848,14.828V2.535
	h0.292v12.293H78.848z M79.423,14.837V2.535H80v12.302H79.423z"/>
<path fill="#FFFFFF" d="M8.559,0.559C4.45,0.559,1.117,3.891,1.117,8c0,4.11,3.333,7.441,7.441,7.441C12.668,15.441,16,12.11,16,8
	C16,3.891,12.668,0.559,8.559,0.559z M8.559,3.858c0.696,0,1.26,0.565,1.26,1.262c0,0.696-0.564,1.26-1.26,1.26
	c-0.696,0-1.26-0.564-1.26-1.26C7.299,4.423,7.863,3.858,8.559,3.858z M10.239,11.48c0,0.198-0.161,0.359-0.36,0.359H7.238
	c-0.199,0-0.36-0.161-0.36-0.359v-0.722c0-0.198,0.161-0.358,0.36-0.358h0.36V8.479h-0.36c-0.199,0-0.36-0.161-0.36-0.36V7.4
	c0-0.2,0.161-0.361,0.36-0.361h1.92c0.199,0,0.36,0.161,0.36,0.361v3h0.36c0.199,0,0.36,0.16,0.36,0.358V11.48z"/>
</svg>
